PathFileType	4	(X/Y/Z)	./resultDataOpenSim/trcMotMarkerGrf/sub06/qtm-13-02.trc
DataRate	CameraRate	NumFrames	NumMarkers	Units	OrigDataRate	OrigDataStartFrame	OrigNumFrames
250.000000	250.000000	7	24	m	250.000000	1	537
Frame#	Time	L.Toe.Tip			R.Toe.Tip			L.Ankle.Lat			R.Ankle.Lat			L.Ankle.Med			R.Ankle.Med			L.Heel			R.Heel			L.Knee.Lat			R.Knee.Lat			L.Knee.Med			R.Knee.Med			L.Thigh.Upper			R.Thigh.Upper			L.ASIS			R.ASIS			V.Sacral			L.Acromium			R.Acromium			C7			L.Elbow			R.Elbow			L.Wrist.Lat			R.Wrist.Lat
		X1	Y1	Z1	X2	Y2	Z2	X3	Y3	Z3	X4	Y4	Z4	X5	Y5	Z5	X6	Y6	Z6	X7	Y7	Z7	X8	Y8	Z8	X9	Y9	Z9	X10	Y10	Z10	X11	Y11	Z11	X12	Y12	Z12	X13	Y13	Z13	X14	Y14	Z14	X15	Y15	Z15	X16	Y16	Z16	X17	Y17	Z17	X18	Y18	Z18	X19	Y19	Z19	X20	Y20	Z20	X21	Y21	Z21	X22	Y22	Z22	X23	Y23	Z23	X24	Y24	Z24

1	0	-1.5723745	0.033423958	-0.089293861	-1.1701991	0.068064023	0.095607333	-1.6962883	0.072812485	-0.098011126	-1.3059224	0.080173914	0.10606016	-1.6828312	0.090085591	-0.016904385	-1.278915	0.10368872	0.023077367	NaN	NaN	NaN	-1.3470482	0.050103446	0.036220236	-1.567321	0.42675646	-0.12899825	-1.2953541	0.47109636	0.12108136	-1.5721179	0.43228264	-0.0056850585	-1.316315	0.4524633	-0.0056615102	-1.5046674	0.80913399	-0.1933415	-1.4632888	0.80713497	0.15042927	-1.4194439	0.85469968	-0.16068469	-1.3879523	0.86253324	0.080980791	-1.5805708	0.93583277	-0.0034039834	-1.4350811	1.3489247	-0.21693336	-1.4272769	1.3401113	0.14328703	-1.5094088	1.3762589	-0.037491403	-1.436706	1.0230671	-0.28907641	-1.5526056	1.0497361	0.22584819	-1.2066694	0.91953054	-0.26920948	-1.4358523	0.83328161	0.23328083
2	0.004	-1.5723439	0.033290973	-0.089138009	-1.1530296	0.069605686	0.094896997	-1.6957126	0.073042184	-0.098019392	-1.2881617	0.079481843	0.10622381	-1.6817383	0.090296816	-0.016885	-1.2628737	0.10311527	0.022887435	NaN	NaN	NaN	-1.3297509	0.048071381	0.036323778	-1.5645468	0.42607197	-0.12908091	-1.2890786	0.46977818	0.1201209	-1.5699797	0.43170338	-0.0056124883	-1.3098607	0.45071328	-0.0067087324	-1.499863	0.80799405	-0.19347896	-1.4564621	0.80604651	0.1504561	-1.4142931	0.85338978	-0.16101284	-1.3818052	0.86113996	0.080633499	-1.5750494	0.93452531	-0.0031990561	-1.4297586	1.3476718	-0.21700949	-1.4221561	1.3384951	0.14334358	-1.5042461	1.3750853	-0.037287573	-1.4282264	1.0218133	-0.28929052	-1.5492668	1.0488766	0.22500473	-1.197105	0.92116399	-0.2678648	-1.4360352	0.8309348	0.23411873
3	0.008	-1.5722829	0.033168944	-0.08899642	-1.135941	0.071287637	0.094210715	-1.6951973	0.073284014	-0.097997947	-1.2704109	0.078956171	0.10640558	-1.6809174	0.090484669	-0.016835965	-1.2469091	0.10265696	0.022685975	NaN	NaN	NaN	-1.3125343	0.046210001	0.036367916	-1.561836	0.42537847	-0.12915356	-1.2827782	0.46842133	0.11918008	-1.5675805	0.43111166	-0.0055435306	-1.3034215	0.44893948	-0.0077926976	-1.4950397	0.80681545	-0.19357559	-1.4499723	0.80475148	0.15039281	-1.4091145	0.85205352	-0.16133818	-1.3756335	0.85972339	0.080295311	-1.5695522	0.93318756	-0.0030452867	-1.4244201	1.3463888	-0.21707549	-1.4169965	1.3368695	0.14339485	-1.4991678	1.373872	-0.037167727	-1.4197473	1.0205657	-0.28956963	-1.5459382	1.0480232	0.22417996	-1.1875998	0.92276878	-0.26650257	-1.4361979	0.82863192	0.23495376
4	0.012	-1.5721418	0.033074468	-0.088915166	-1.1190345	0.073187534	0.093531158	-1.6947768	0.073544064	-0.097941522	-1.2529474	0.078575317	0.10653081	-1.6804305	0.090647324	-0.016759119	-1.2310549	0.1023994	0.022472742	NaN	NaN	NaN	-1.2954344	0.044611866	0.03636312	-1.5591534	0.42465526	-0.12921973	-1.2764785	0.46700225	0.11826495	-1.5648419	0.43051107	-0.0055196557	-1.2969962	0.44712541	-0.0089103485	-1.4901753	0.80558122	-0.19362687	-1.4440936	0.80317009	0.1501585	-1.403896	0.85067444	-0.16165582	-1.3694112	0.85826703	0.079967316	-1.5640426	0.93176212	-0.0030080672	-1.4190447	1.3450668	-0.21711953	-1.4117864	1.3352266	0.14344422	-1.4941319	1.3726025	-0.037121666	-1.4112085	1.0193342	-0.28985992	-1.5426108	1.0471836	0.22339674	-1.178176	0.92431849	-0.26511813	-1.4363207	0.82639602	0.23579065
5	0.016	-1.5718683	0.033027075	-0.088954339	-1.1024098	0.07532857	0.092829249	-1.6944521	0.073822724	-0.097863953	-1.236029	0.078286831	0.1065375	-1.6801337	0.090807168	-0.016680443	-1.2153658	0.10237687	0.022257542	NaN	NaN	NaN	-1.2784844	0.043287055	0.03635886	-1.5564146	0.42389084	-0.12928818	-1.2702205	0.46552385	0.117383	-1.5617145	0.42986583	-0.0056455748	-1.2905741	0.44528113	-0.010028549	-1.4852628	0.80429748	-0.19365696	-1.438882	0.80134966	0.1497414	-1.3986673	0.84924262	-0.16198474	-1.3631428	0.8567739	0.079644527	-1.558439	0.9301287	-0.0032025164	-1.4136275	1.3437193	-0.21713863	-1.4065417	1.3335636	0.14350758	-1.4890181	1.3712811	-0.037066179	-1.4025659	1.0181339	-0.2900655	-1.539225	1.0463591	0.22267229	-1.1688476	0.92580202	-0.26372284	-1.4363766	0.82423925	0.23663775
6	0.02	-1.5714863	0.033026963	-0.089100242	-1.0860828	0.077723593	0.092076755	-1.6941858	0.074126753	-0.097779345	-1.2196321	0.078134535	0.10645245	-1.6798406	0.090997417	-0.016620368	-1.1998997	0.10258534	0.022046605	NaN	NaN	NaN	-1.2617061	0.042207803	0.036362486	-1.5535643	0.42309623	-0.12936236	-1.2639872	0.4640117	0.11655412	-1.5580144	0.42908155	-0.0060528062	-1.2841482	0.44343709	-0.011118286	-1.4803027	0.80297206	-0.19369132	-1.4339681	0.79941481	0.1492502	-1.393484	0.84773545	-0.16238294	-1.3568514	0.85525657	0.079321268	-1.5526597	0.92814456	-0.0037183738	-1.4081711	1.3423567	-0.21714282	-1.4012587	1.3318714	0.14360003	-1.4837597	1.3699111	-0.036953262	-1.3938722	1.0169676	-0.29019105	-1.5356837	1.0455515	0.22200228	-1.159621	0.92722825	-0.26233174	-1.4363364	0.82217041	0.23749683
7	0.024	-1.5711416	0.033037762	-0.089213977	-1.0700365	0.080388238	0.091259516	-1.6939084	0.074474633	-0.097695075	-1.2036204	0.078177355	0.10633113	-1.6794971	0.091229364	-0.016560758	-1.1847004	0.10300647	0.021830742	NaN	NaN	NaN	-1.2451304	0.041343377	0.036337638	-1.5505895	0.42228799	-0.12943354	-1.2577707	0.46248578	0.11579059	-1.5537009	0.42810955	-0.0067408785	-1.2777331	0.4416199	-0.012175897	-1.4752959	0.80161179	-0.1937351	-1.428554	0.79755272	0.14888849	-1.388364	0.84614449	-0.1628773	-1.3505594	0.85371472	0.078992062	-1.546696	0.92584041	-0.0043778128	-1.402679	1.3409739	-0.21713638	-1.3959204	1.3301414	0.14371979	-1.4783945	1.3684876	-0.036837704	-1.3852519	1.015815	-0.2903204	-1.5319509	1.0447634	0.22138269	-1.1504991	0.92860239	-0.26095086	-1.4361906	0.8201924	0.23836137
